<?xml version="1.0" standalone="no"?>
<!DOCTYPE svg PUBLIC "-//W3C//DTD SVG 20010904//EN"
 "http://www.w3.org/TR/2001/REC-SVG-20010904/DTD/svg10.dtd">
<svg version="1.0" xmlns="http://www.w3.org/2000/svg"
 width="720.000000pt" height="720.000000pt" viewBox="0 0 720.000000 720.000000"
 preserveAspectRatio="xMidYMid meet">
<metadata>
Created by potrace 1.14, written by Peter Selinger 2001-2017
</metadata>
<g transform="translate(0.000000,720.000000) scale(0.100000,-0.100000)"
fill="#000000" stroke="none">
<path d="M3346 6039 c-168 -21 -502 -99 -468 -110 8 -3 4 -9 -9 -18 -19 -11
-21 -11 -16 3 8 20 -3 20 -29 2 -15 -12 -17 -17 -6 -27 17 -18 15 -34 -3 -19
-9 7 -15 8 -15 2 0 -5 -10 -8 -22 -5 -17 3 -19 2 -9 -5 12 -9 12 -11 0 -14 -8
-3 0 -3 16 -2 17 2 24 1 18 -2 -7 -3 -13 -23 -13 -44 0 -29 6 -43 22 -54 12
-9 18 -16 12 -16 -14 0 -59 -39 -52 -45 3 -3 11 1 17 9 7 8 20 12 29 9 15 -4
15 -3 2 7 -12 10 -11 11 10 7 14 -3 41 1 60 9 33 13 33 14 6 10 -16 -2 -43 3
-60 11 -31 14 -8 12 28 -3 14 -5 17 -4 11 5 -5 9 -2 12 11 8 59 -16 75 -17 68
-6 -4 7 -3 9 3 6 6 -4 41 2 79 12 186 52 298 65 544 66 247 0 308 -6 505 -52
294 -68 612 -223 845 -410 352 -284 619 -699 730 -1134 42 -162 69 -366 70
-514 l1 -60 95 -60 c53 -33 100 -62 105 -63 12 -5 11 281 -1 409 -39 378 -181
764 -398 1079 -234 340 -526 592 -902 779 -210 104 -418 171 -655 212 -138 24
-496 34 -629 18z m-319 -105 c-3 -3 -12 -4 -19 -1 -8 3 -5 6 6 6 11 1 17 -2
13 -5z"/>
<path d="M2774 5895 c-18 -14 -18 -14 4 -8 12 3 22 9 22 14 0 12 -3 11 -26 -6z"/>
<path d="M2765 5740 c-3 -5 1 -10 9 -10 9 0 16 5 16 10 0 6 -4 10 -9 10 -6 0
-13 -4 -16 -10z"/>
<path d="M2735 5691 c-3 -5 -2 -12 3 -15 5 -3 9 1 9 9 0 17 -3 19 -12 6z"/>
<path d="M4950 4406 c-121 -26 -215 -95 -270 -198 -31 -56 -35 -73 -38 -158
-3 -79 0 -105 17 -152 40 -105 97 -151 491 -401 195 -123 533 -338 750 -477
217 -139 420 -268 450 -287 30 -19 120 -76 200 -127 80 -52 148 -92 151 -90
17 10 110 177 102 183 -5 3 -220 141 -479 305 -417 266 -846 540 -989 631 -27
17 -131 83 -230 145 -99 63 -195 129 -212 147 -18 19 -39 56 -47 83 -37 123
52 210 216 210 121 0 228 -43 321 -128 l27 -26 0 126 0 126 -67 35 c-118 61
-265 81 -393 53z"/>
<path d="M3019 4383 c-1 -5 -1 -12 0 -16 1 -5 -4 -5 -10 -1 -7 4 -17 1 -23 -7
-6 -8 -31 -24 -56 -37 -79 -39 -114 -63 -103 -70 14 -9 22 -197 9 -209 -6 -5
-6 -2 -1 6 6 11 4 13 -11 8 -18 -7 -18 -7 0 7 18 14 18 15 -2 13 -22 -1 -23
-24 -1 -38 13 -8 6 -13 -14 -10 -5 1 -6 -3 -2 -8 3 -6 24 2 48 18 23 15 61 41
85 56 41 27 42 28 25 49 -17 19 -17 20 0 7 11 -9 21 -10 30 -3 8 6 18 4 32
-10 17 -16 17 -18 2 -13 -22 9 -22 -4 1 -21 12 -10 13 -13 2 -9 -14 5 -16 -60
-19 -575 l-3 -580 100 0 c83 0 101 3 106 16 3 9 6 333 6 719 0 627 -2 704 -16
709 -23 9 -184 7 -185 -1z m156 -39 c-71 -8 -163 -8 -158 -1 2 4 46 6 96 5 51
0 79 -3 62 -4z m-198 -20 c-3 -3 -12 -4 -19 -1 -8 3 -5 6 6 6 11 1 17 -2 13
-5z m-122 -64 c3 -5 1 -10 -4 -10 -6 0 -11 5 -11 10 0 6 2 10 4 10 3 0 8 -4
11 -10z m80 -148 c-3 -3 -11 0 -18 7 -9 10 -8 11 6 5 10 -3 15 -9 12 -12z
m-19 -16 c29 11 14 -1 -26 -20 -19 -9 -28 -11 -19 -4 9 7 14 20 12 28 -4 11
-2 12 5 2 5 -8 16 -10 28 -6z"/>
<path d="M3500 3668 c0 -568 3 -718 13 -718 9 0 9 -2 -1 -9 -15 -9 201 -21
393 -21 245 0 389 42 490 144 75 77 99 132 103 241 5 116 -18 182 -89 260 -50
54 -169 125 -210 125 -31 0 -29 16 4 32 57 28 115 87 144 146 24 49 28 68 27
142 -1 109 -27 180 -92 248 -105 111 -203 135 -539 130 l-243 -3 0 -717z m25
693 c-3 -6 14 -12 37 -14 l43 -4 -44 1 c-26 1 -46 6 -49 14 -2 6 1 12 8 12 6
0 9 -4 5 -9z m-8 -1058 c-1 -191 -2 -37 -2 342 0 380 1 536 2 348 2 -188 2
-498 0 -690z m533 869 c61 -30 93 -79 98 -153 6 -86 -4 -121 -49 -173 -30 -34
-53 -50 -92 -61 -65 -20 -286 -33 -295 -18 -4 6 -6 106 -4 223 l3 212 147 -4
c126 -4 154 -7 192 -26z m82 -625 c61 -26 105 -65 127 -112 50 -106 5 -234
-102 -291 -34 -18 -186 -33 -334 -34 l-113 0 0 228 c0 126 2 231 4 233 2 2 89
1 193 -2 143 -4 197 -9 225 -22z"/>
<path d="M2775 4225 c-26 -21 -27 -23 -7 -18 17 4 21 2 16 -10 -3 -8 0 -18 6
-22 7 -4 9 2 6 21 -3 15 0 34 6 41 16 20 6 16 -27 -12z"/>
<path d="M4640 3186 l0 -136 56 -36 c163 -104 392 -130 546 -60 63 28 124 78
115 93 -4 6 -41 32 -82 58 l-76 47 -51 -22 c-44 -19 -65 -22 -138 -18 -119 6
-213 50 -305 143 l-65 66 0 -135z"/>
<path d="M5551 2852 c-357 -808 -1162 -1313 -2041 -1279 -160 6 -339 32 -470
68 -92 25 -142 41 -155 50 -5 3 -23 9 -40 13 -16 4 -54 18 -83 32 -29 13 -55
24 -58 24 -8 0 -139 64 -144 71 -6 8 -96 49 -107 49 -4 0 -1 -5 7 -11 12 -8
10 -10 -10 -5 -21 4 -23 3 -10 -7 8 -7 20 -19 26 -26 9 -10 13 -9 18 4 4 10 2
14 -6 9 -7 -4 -8 -3 -4 4 9 14 36 4 31 -11 -3 -7 -7 -45 -9 -84 -4 -53 -1 -73
7 -73 8 0 8 -3 -1 -9 -11 -7 -10 -10 3 -15 23 -8 25 -8 23 6 -2 7 3 13 11 13
8 0 16 -10 17 -22 2 -13 -1 -23 -7 -23 -5 0 -7 5 -3 11 4 7 0 9 -12 6 -11 -4
-30 0 -44 8 -14 8 -20 14 -15 15 6 0 9 28 7 71 -4 86 -12 84 -16 -2 -2 -57 -5
-64 -22 -61 -10 2 8 -13 41 -32 33 -19 63 -32 67 -30 5 3 8 1 8 -4 0 -13 70
-43 82 -36 6 4 8 2 5 -3 -8 -13 50 -36 66 -26 5 3 7 1 4 -4 -15 -25 331 -126
547 -160 138 -22 519 -24 641 -4 313 51 519 116 762 240 441 225 802 591 1028
1041 86 171 87 149 -11 214 -46 31 -87 56 -91 56 -5 0 -23 -35 -42 -78z
m-2964 -1048 c-3 -3 -12 -4 -19 -1 -8 3 -5 6 6 6 11 1 17 -2 13 -5z m73 -34
c8 -5 11 -10 5 -10 -5 0 -17 5 -25 10 -8 5 -10 10 -5 10 6 0 17 -5 25 -10z"/>
<path d="M2407 1889 c7 -7 15 -10 18 -7 3 3 -2 9 -12 12 -14 6 -15 5 -6 -5z"/>
</g>
</svg>
